# xmcd
#
# Track frame offsets: 
#        150
#        16106
#        34300
#        46675
#        65076
#        80827
#        102629
#        121608
#        138604
#        153156
#        176729
#
# Disc length: 2659 seconds
#
# Revision: 2
# Processed by: cddbd v1.5.2PL0 Copyright (c) Steve Scherf et al.
# Submitted via: ExactAudioCopy v1.0b3
#
DISCID=900a610b
DTITLE=Clutch - Earth Rocker [CD2 Live)
DYEAR=2014
DGENRE=Rock
TTITLE0=Earth Rocker
TTITLE1=Crucial Velocity
TTITLE2=Mr. Freedom
TTITLE3=D.C. Sound Attack!
TTITLE4=Unto The Breach
TTITLE5=Gone Cold
TTITLE6=The Face
TTITLE7=Book, Saddle, And Go
TTITLE8=Cyborg Bette
TTITLE9=Oh, Isabella
TTITLE10=The Wolf Man Kindly Requests...
EXTD=
EXTT0=
EXTT1=
EXTT2=
EXTT3=
EXTT4=
EXTT5=
EXTT6=
EXTT7=
EXTT8=
EXTT9=
EXTT10=
PLAYORDER=
